<svg xmlns="http://www.w3.org/2000/svg" viewBox="0 -960 960 960" height="32px" width="32px">
    <symbol id="icon-eye" height="32px" width="32px" viewBox="0 -960 960 960">
        <path d="M480-320q75 0 127.5-52.5T660-500q0-75-52.5-127.5T480-680q-75 0-127.5 52.5T300-500q0 75 52.5 127.5T480-320Zm.1-83.87q-40.01 0-68.12-28.01-28.11-28.01-28.11-68.02 0-40.01 28.01-68.12 28.01-28.11 68.02-28.11 40.01 0 68.12 28.01 28.11 28.01 28.11 68.02 0 40.01-28.01 68.12-28.01 28.11-68.02 28.11Zm-.1 221.39q-152.78 0-277.02-87.15Q78.74-356.78 22.48-500q56.26-143.22 180.5-230.37Q327.22-817.52 480-817.52q152.78 0 277.02 87.15Q881.26-643.22 937.52-500q-56.26 143.22-180.5 230.37Q632.78-182.48 480-182.48ZM480-500Zm.05 220q112.38 0 206.32-59.78Q780.3-399.57 830.3-500q-50-100.43-143.98-160.22Q592.33-720 479.95-720q-112.38 0-206.32 59.78Q179.7-600.43 129.7-500q50 100.43 143.98 160.22Q367.67-280 480.05-280Z"/>
    </symbol>

    <symbol id="icon-eye-closed" height="32px" width="32px" viewBox="0 -960 960 960">
        <path d="M480-320q75 0 127.5-52.5T660-500q0-75-52.5-127.5T480-680q-75 0-127.5 52.5T300-500q0 75 52.5 127.5T480-320Zm.1-83.87q-40.01 0-68.12-28.01-28.11-28.01-28.11-68.02 0-40.01 28.01-68.12 28.01-28.11 68.02-28.11 40.01 0 68.12 28.01 28.11 28.01 28.11 68.02 0 40.01-28.01 68.12-28.01 28.11-68.02 28.11Zm-.1 221.39q-152.78 0-277.02-87.15Q78.74-356.78 22.48-500q56.26-143.22 180.5-230.37Q327.22-817.52 480-817.52q152.78 0 277.02 87.15Q881.26-643.22 937.52-500q-56.26 143.22-180.5 230.37Q632.78-182.48 480-182.48ZM480-500Zm.05 220q112.38 0 206.32-59.78Q780.3-399.57 830.3-500q-50-100.43-143.98-160.22Q592.33-720 479.95-720q-112.38 0-206.32 59.78Q179.7-600.43 129.7-500q50 100.43 143.98 160.22Q367.67-280 480.05-280Z"/>
        <g fill="#8B1A10">
            <path d="M480-52q-88.67 0-166.67-33.83-78-33.84-136.33-92.17-58.33-58.33-91.67-136.5Q52-392.67 52-482q0-88 33.67-165.83 33.66-77.84 91.66-135.67 58-57.83 136-91.5T480-908.67q88.67 0 166.67 33.67 78 33.67 136 91.5t92 135.67q34 77.83 34 165.83 0 89.33-33.67 167.5T783-178q-58.33 58.33-136.33 92.17Q568.67-52 480-52Zm0-104.67q52.01 0 101.34-15.16Q630.67-187 670-220.33l-451.67-450q-30.66 40.66-46.16 89.11-15.5 48.44-15.5 99.22 0 135.92 94.2 230.63 94.21 94.7 229.13 94.7ZM742-293q28.33-40.67 44.83-89 16.5-48.32 16.5-100 0-134.25-94.2-227.79-94.21-93.54-229.13-93.54-51.44 0-99.05 14.83-47.62 14.83-88.95 45.17L742-293Z"/>
        </g>
    </symbol>


    <symbol id="paint" height="32px" width="32px" viewBox="0 -960 960 960">
        <g fill="#1A8B10">
            <path d="M240-120q-45 0-89-22t-71-58q26 0 53-20.5t27-59.5q0-50 35-85t85-35q50 0 85 35t35 85q0 66-47 113t-113 47Zm0-80q33 0 56.5-23.5T320-280q0-17-11.5-28.5T280-320q-17 0-28.5 11.5T240-280q0 23-5.5 42T220-202q5 2 10 2h10Zm230-160L360-470l358-358q11-11 27.5-11.5T774-828l54 54q12 12 12 28t-12 28L470-360Zm-190 80Z"/>
        </g>
    </symbol>

    <symbol id="no-paint" height="32px" width="32px" viewBox="0 -960 960 960">
        <path d="M240-120q-45 0-89-22t-71-58q26 0 53-20.5t27-59.5q0-50 35-85t85-35q50 0 85 35t35 85q0 66-47 113t-113 47Zm0-80q33 0 56.5-23.5T320-280q0-17-11.5-28.5T280-320q-17 0-28.5 11.5T240-280q0 23-5.5 42T220-202q5 2 10 2h10Zm230-160L360-470l358-358q11-11 27.5-11.5T774-828l54 54q12 12 12 28t-12 28L470-360Zm-190 80Z"/>
        <g fill="#8B1A10">
            <path d="M480-52q-88.67 0-166.67-33.83-78-33.84-136.33-92.17-58.33-58.33-91.67-136.5Q52-392.67 52-482q0-88 33.67-165.83 33.66-77.84 91.66-135.67 58-57.83 136-91.5T480-908.67q88.67 0 166.67 33.67 78 33.67 136 91.5t92 135.67q34 77.83 34 165.83 0 89.33-33.67 167.5T783-178q-58.33 58.33-136.33 92.17Q568.67-52 480-52Zm0-104.67q52.01 0 101.34-15.16Q630.67-187 670-220.33l-451.67-450q-30.66 40.66-46.16 89.11-15.5 48.44-15.5 99.22 0 135.92 94.2 230.63 94.21 94.7 229.13 94.7ZM742-293q28.33-40.67 44.83-89 16.5-48.32 16.5-100 0-134.25-94.2-227.79-94.21-93.54-229.13-93.54-51.44 0-99.05 14.83-47.62 14.83-88.95 45.17L742-293Z"/>
        </g>
    </symbol>

    <symbol id="save" height="32px" width="32px" viewBox="0 -960 960 960">
        <path d="M840-682v495.33q0 27-19.83 46.84Q800.33-120 773.33-120H186.67q-27 0-46.84-19.83Q120-159.67 120-186.67v-586.66q0-27 19.83-46.84Q159.67-840 186.67-840H682l158 158Zm-66.67 29.33L652.67-773.33h-466v586.66h586.66v-466ZM479.84-243.33q45.49 0 77.49-31.85 32-31.84 32-77.33 0-45.49-31.84-77.49-31.84-32-77.33-32-45.49 0-77.49 31.84-32 31.85-32 77.34t31.84 77.49q31.84 32 77.33 32ZM235.33-576H594v-148.67H235.33V-576Zm-48.66-76.67v466-586.66 120.66Z"/>
    </symbol>


    <symbol id="open" height="32px" width="32px" viewBox="0 -960 960 960">
        <path d="M160-160q-33 0-56.5-23.5T80-240v-480q0-33 23.5-56.5T160-800h240l80 80h320q33 0 56.5 23.5T880-640H447l-80-80H160v480l96-320h684L837-217q-8 26-29.5 41.5T760-160H160Zm84-80h516l72-240H316l-72 240Zm0 0 72-240-72 240Zm-84-400v-80 80Z"/>
    </symbol>


    <symbol id="save" height="32px" width="32px" viewBox="0 -960 960 960">
        <path d="M480-80 314.67-245.33 363-293.67 446.67-210v-236.67H210.33l80.34 80L242-318 80-480l162.33-162.33L290.67-594 210-513.33h236.67V-750l-80.34 80.33L318-718l162-162 162 162-48.33 48.33L513.33-750v236.67h236.34l-80.34-80L718-642l162 162-162 162-48.33-48.33L750-446.67H513.33v236.34L596.67-294l48.66 48.67L480-80Z"/>
    </symbol>
</svg>