<svg xmlns="http://www.w3.org/2000/svg" viewBox="0 -960 960 960" height="32px" width="32px">
    <symbol id="icon-eye" height="32px" width="32px" viewBox="0 -960 960 960">
        <g transform="translate(0,100)">
            <path d="M480-320q75 0 127.5-52.5T660-500q0-75-52.5-127.5T480-680q-75 0-127.5 52.5T300-500q0 75 52.5 127.5T480-320Zm.1-83.87q-40.01 0-68.12-28.01-28.11-28.01-28.11-68.02 0-40.01 28.01-68.12 28.01-28.11 68.02-28.11 40.01 0 68.12 28.01 28.11 28.01 28.11 68.02 0 40.01-28.01 68.12-28.01 28.11-68.02 28.11Zm-.1 221.39q-152.78 0-277.02-87.15Q78.74-356.78 22.48-500q56.26-143.22 180.5-230.37Q327.22-817.52 480-817.52q152.78 0 277.02 87.15Q881.26-643.22 937.52-500q-56.26 143.22-180.5 230.37Q632.78-182.48 480-182.48ZM480-500Zm.05 220q112.38 0 206.32-59.78Q780.3-399.57 830.3-500q-50-100.43-143.98-160.22Q592.33-720 479.95-720q-112.38 0-206.32 59.78Q179.7-600.43 129.7-500q50 100.43 143.98 160.22Q367.67-280 480.05-280Z"/>
        </g>
    </symbol>

    <symbol id="icon-eye-closed" height="32px" width="32px" viewBox="0 -960 960 960">
        <g transform="translate(0,100)">
            <path d="m647.39-437.61-82.3-82.3q5.04-26.66-15.98-50.7-21.02-24.04-53.72-19l-77.78-77.78q15.3-6.31 30.83-9.46Q463.96-680 480-680q75 0 127.5 52.5T660-500q0 14.91-3.15 31.56-3.15 16.66-9.46 30.83Zm142.7 141.83-69.31-68.44q34.05-27.87 61-60.39 26.96-32.52 49.09-75.39-51.13-100.43-143.5-160.22Q595-720 480-720q-29 0-53.89 3.43-24.89 3.44-47.94 9.74l-76.69-76.69q41-17 86.26-25.5 45.26-8.5 92.26-8.5 154.39 0 277.2 86.32Q880-644.87 937.52-500q-23 60.13-61.63 112.89t-85.8 91.33Zm-4.87 246.56L627.39-205.61q-33.87 11.57-70.5 17.35-36.63 5.78-76.89 5.78-154.96 0-277.76-86.89Q79.43-356.26 22.48-500q20.43-51.87 53-99.35 32.56-47.48 72.43-85.74L40.17-793.7l62.22-62.21 744.48 745.04-61.65 61.65ZM216.91-617.78q-27.87 27.13-48.76 54.74-20.89 27.61-38.45 63.04 50 101 142.65 160.5T480-280q14.91 0 31.37-1.65t36.46-4.65l-36-38q-8.18 2.43-15.92 3.37-7.74.93-15.91.93-75 0-127.5-52.5T300-500q0-7.61.65-15.63t2.52-16.2l-86.26-85.95Zm332.57 82.26Zm-167.39 83.48Z"/>
        </g>
    </symbol>

    <symbol id="paint" height="32px" width="32px" viewBox="0 -960 960 960">
        <path d="M240-120q-45 0-89-22t-71-58q26 0 53-20.5t27-59.5q0-50 35-85t85-35q50 0 85 35t35 85q0 66-47 113t-113 47Zm0-80q33 0 56.5-23.5T320-280q0-17-11.5-28.5T280-320q-17 0-28.5 11.5T240-280q0 23-5.5 42T220-202q5 2 10 2h10Zm230-160L360-470l358-358q11-11 27.5-11.5T774-828l54 54q12 12 12 28t-12 28L470-360Zm-190 80Z"/>
    </symbol>

    <symbol id="no-paint" height="32px" width="32px" viewBox="0 -960 960 960">
        <path d="M240-120q-45 0-89-22t-71-58q26 0 53-20.5t27-59.5q0-50 35-85t85-35q50 0 85 35t35 85q0 66-47 113t-113 47Zm0-80q33 0 56.5-23.5T320-280q0-17-11.5-28.5T280-320q-17 0-28.5 11.5T240-280q0 23-5.5 42T220-202q5 2 10 2h10Zm230-160L360-470l358-358q11-11 27.5-11.5T774-828l54 54q12 12 12 28t-12 28L470-360Zm-190 80Z"/>
    </symbol>
</svg>