<svg xmlns="http://www.w3.org/2000/svg" width="32" height="32">

    <symbol id="tuto" viewBox="0 0 48 48">
        <path d="M5 10L8 13L14 7" stroke="#000000" stroke-width="4" stroke-linecap="round" stroke-linejoin="round"/>
        <path d="M5 24L8 27L14 21" stroke="#000000" stroke-width="4" stroke-linecap="round" stroke-linejoin="round"/>
        <path d="M5 38L8 41L14 35" stroke="#000000" stroke-width="4" stroke-linecap="round" stroke-linejoin="round"/>
        <path d="M21 24H43" stroke="#000000" stroke-width="4" stroke-linecap="round" stroke-linejoin="round"/>
        <path d="M21 38H43" stroke="#000000" stroke-width="4" stroke-linecap="round" stroke-linejoin="round"/>
        <path d="M21 10H43" stroke="#000000" stroke-width="4" stroke-linecap="round" stroke-linejoin="round"/>
    </symbol>
    <symbol id="icon-eye" viewBox="0 0 24 24">
        <path d="M15 12a3 3 0 1 1-6 0 3 3 0 0 1 6 0z" fill="#0D0D0D"/>
        <path d="M21.894 11.553C19.736 7.236 15.904 5 12 5c-3.903 0-7.736 2.236-9.894 6.553a1 1 0 0 0 0 .894C4.264 16.764 8.096 19 12 19c3.903 0 7.736-2.236 9.894-6.553a1 1 0 0 0 0-.894zM12 17c-2.969 0-6.002-1.62-7.87-5C5.998 8.62 9.03 7 12 7c2.969 0 6.002 1.62 7.87 5-1.868 3.38-4.901 5-7.87 5z"
              fill="#0D0D0D"/>
    </symbol>

    <symbol id="icon-eye-closed" viewBox="0 0 20 20">
        <path d="M1.68788 8.3059C1.36566 7.85735 1.46807 7.23252 1.91662 6.9103C2.36517 6.58809 2.99 6.6905 3.31221 7.13905C3.61607 7.56204 4.08478 7.96552 4.6918 8.31591C5.98518 9.0625 7.7771 9.5 9.7043 9.5C11.6315 9.5 13.4234 9.0625 14.7168 8.31591C15.3238 7.96552 15.7925 7.56204 16.0964 7.13905C16.4186 6.6905 17.0434 6.58809 17.492 6.9103C17.9405 7.23252 18.0429 7.85735 17.7207 8.3059C17.2402 8.97475 16.5568 9.56308 15.7167 10.048C14.1049 10.9784 11.9685 11.5 9.7043 11.5C7.44007 11.5 5.30367 10.9784 3.69195 10.048C2.85179 9.56308 2.16836 8.97475 1.68788 8.3059Z"
              fill="#000000"/>
        <path d="M11 11C11 10.4477 10.5523 10 10 10C9.44772 10 9 10.4477 9 11L9 13.5C9 14.0523 9.44772 14.5 10 14.5C10.5523 14.5 11 14.0523 11 13.5L11 11Z"
              fill="#000000"/>
        <path d="M5.52985 10.7575C5.6638 10.2217 6.20673 9.8959 6.74253 10.0298C7.27832 10.1638 7.60408 10.7067 7.47013 11.2425L6.97013 13.2425C6.83619 13.7783 6.29325 14.1041 5.75746 13.9701C5.22166 13.8362 4.8959 13.2933 5.02985 12.7575L5.52985 10.7575Z"
              fill="#000000"/>
        <path d="M13.9702 10.7575C13.8362 10.2217 13.2933 9.8959 12.7575 10.0298C12.2217 10.1638 11.8959 10.7067 12.0299 11.2425L12.5299 13.2425C12.6638 13.7783 13.2067 14.1041 13.7425 13.9701C14.2783 13.8362 14.6041 13.2933 14.4702 12.7575L13.9702 10.7575Z"
              fill="#000000"/>
        <path d="M16.5249 8.29289C16.1344 7.90237 15.5012 7.90237 15.1107 8.29289C14.7201 8.68342 14.7201 9.31658 15.1107 9.70711L17.1107 11.7071C17.5012 12.0976 18.1344 12.0976 18.5249 11.7071C18.9154 11.3166 18.9154 10.6834 18.5249 10.2929L16.5249 8.29289Z"
              fill="#000000"/>
        <path d="M3.07775 8.32742C3.44921 7.91872 4.08165 7.88853 4.49036 8.25999C4.89906 8.63145 4.92924 9.26389 4.55779 9.67259L2.74002 11.6726C2.36857 12.0813 1.73612 12.1115 1.32742 11.74C0.918719 11.3686 0.88853 10.7361 1.25999 10.3274L3.07775 8.32742Z"
              fill="#000000"/>
    </symbol>

    <symbol id="brush" viewBox="0 0 24 24">
        <path d="M7.061 22c1.523 0 2.84-.543 3.91-1.613 1.123-1.123 1.707-2.854 1.551-4.494l8.564-8.564a3.123 3.123 0 0 0-.002-4.414c-1.178-1.18-3.234-1.18-4.412 0l-8.884 8.884c-1.913.169-3.807 1.521-3.807 3.919 0 .303.021.588.042.86.08 1.031.109 1.418-1.471 2.208a1.001 1.001 0 0 0-.122 1.717C2.52 20.563 4.623 22 7.061 22c-.001 0-.001 0 0 0zM18.086 4.328a1.144 1.144 0 0 1 1.586.002 1.12 1.12 0 0 1 0 1.584L12 13.586 10.414 12l7.672-7.672zM6.018 16.423c-.018-.224-.037-.458-.037-.706 0-1.545 1.445-1.953 2.21-1.953.356 0 .699.073.964.206.945.475 1.26 1.293 1.357 1.896.177 1.09-.217 2.368-.956 3.107C8.865 19.664 8.049 20 7.061 20H7.06c-.75 0-1.479-.196-2.074-.427 1.082-.973 1.121-1.989 1.032-3.15z"/>
    </symbol>

    <symbol id="continous" viewBox="0 0 512 512">
        <path d="M79.1,372.5C59.4,431.9,49.5,451.7,0,451.7c168.2,69.3,197.9-49.5,197.9-49.5l-49.5-49.5C148.4,352.7,98.9,342.9,79.1,372.5
	z M504.6,46.1c-14-14-38-3.9-38-3.9c-35,7-229.1,201.8-229.1,201.8l69.3,69.3c0,0,194.8-194.1,201.8-229.1
	C508.5,84.1,518.6,60,504.6,46.1z M168.2,333l49.5,49.5l69.3-49.5l-69.3-69.3L168.2,333z"/>
        <line x1="90" x2="480" y1="470" y2="470" stroke="black" stroke-width="15"/>
    </symbol>

    <symbol id="no-paint" viewBox="0 0 512 512">
        <path d="M79.1,372.5C59.4,431.9,49.5,451.7,0,451.7c168.2,69.3,197.9-49.5,197.9-49.5l-49.5-49.5C148.4,352.7,98.9,342.9,79.1,372.5
	z M504.6,46.1c-14-14-38-3.9-38-3.9c-35,7-229.1,201.8-229.1,201.8l69.3,69.3c0,0,194.8-194.1,201.8-229.1
	C508.5,84.1,518.6,60,504.6,46.1z M168.2,333l49.5,49.5l69.3-49.5l-69.3-69.3L168.2,333z"/>
    </symbol>

    <symbol id="eraser" viewBox="0 0 32 32">
        <style type="text/css">
            .st0{fill:none;stroke:#000000;stroke-width:2;stroke-linecap:round;stroke-linejoin:round;stroke-miterlimit:10;}
        </style>
        <path class="st0"
              d="M28,12.5c0.8-0.8,0.8-2,0-2.8L22.4,4c-0.8-0.8-2-0.8-2.8,0L5,18.5c-0.8,0.8-0.8,2,0,2.8l3.8,3.8h6.6L28,12.5z"/>
        <line class="st0" x1="12.5" y1="11.1" x2="20.9" y2="19.5"/>
        <line class="st0" x1="5" y1="29" x2="27" y2="29"/>
    </symbol>
    <symbol id="pot" viewBox="0 0 48 48">
        <path d="M16.5,2.6A1.8,1.8,0,0,0,15.1,2a2,2,0,0,0-1.4.6,1.9,1.9,0,0,0,0,2.8L19.4,11,6.2,24.1a3.9,3.9,0,0,0,0,5.6L19.4,42.8A3.8,3.8,0,0,0,22.2,44,3.9,3.9,0,0,0,25,42.8L41,26.9ZM9.1,26.9l13.1-13,13,13Z"/>
        <path d="M41,32s-4,5.8-4,8a4,4,0,0,0,8,0C45,37.8,41,32,41,32Z"/>
    </symbol>

    <symbol id="magic" viewBox="0 0 15 15">
        <path
                fill-rule="evenodd"
                clip-rule="evenodd"
                d="M13.9 0.499976C13.9 0.279062 13.7209 0.0999756 13.5 0.0999756C13.2791 0.0999756 13.1 0.279062 13.1 0.499976V1.09998H12.5C12.2791 1.09998 12.1 1.27906 12.1 1.49998C12.1 1.72089 12.2791 1.89998 12.5 1.89998H13.1V2.49998C13.1 2.72089 13.2791 2.89998 13.5 2.89998C13.7209 2.89998 13.9 2.72089 13.9 2.49998V1.89998H14.5C14.7209 1.89998 14.9 1.72089 14.9 1.49998C14.9 1.27906 14.7209 1.09998 14.5 1.09998H13.9V0.499976ZM11.8536 3.14642C12.0488 3.34168 12.0488 3.65826 11.8536 3.85353L10.8536 4.85353C10.6583 5.04879 10.3417 5.04879 10.1465 4.85353C9.9512 4.65827 9.9512 4.34169 10.1465 4.14642L11.1464 3.14643C11.3417 2.95116 11.6583 2.95116 11.8536 3.14642ZM9.85357 5.14642C10.0488 5.34168 10.0488 5.65827 9.85357 5.85353L2.85355 12.8535C2.65829 13.0488 2.34171 13.0488 2.14645 12.8535C1.95118 12.6583 1.95118 12.3417 2.14645 12.1464L9.14646 5.14642C9.34172 4.95116 9.65831 4.95116 9.85357 5.14642ZM13.5 5.09998C13.7209 5.09998 13.9 5.27906 13.9 5.49998V6.09998H14.5C14.7209 6.09998 14.9 6.27906 14.9 6.49998C14.9 6.72089 14.7209 6.89998 14.5 6.89998H13.9V7.49998C13.9 7.72089 13.7209 7.89998 13.5 7.89998C13.2791 7.89998 13.1 7.72089 13.1 7.49998V6.89998H12.5C12.2791 6.89998 12.1 6.72089 12.1 6.49998C12.1 6.27906 12.2791 6.09998 12.5 6.09998H13.1V5.49998C13.1 5.27906 13.2791 5.09998 13.5 5.09998ZM8.90002 0.499976C8.90002 0.279062 8.72093 0.0999756 8.50002 0.0999756C8.2791 0.0999756 8.10002 0.279062 8.10002 0.499976V1.09998H7.50002C7.2791 1.09998 7.10002 1.27906 7.10002 1.49998C7.10002 1.72089 7.2791 1.89998 7.50002 1.89998H8.10002V2.49998C8.10002 2.72089 8.2791 2.89998 8.50002 2.89998C8.72093 2.89998 8.90002 2.72089 8.90002 2.49998V1.89998H9.50002C9.72093 1.89998 9.90002 1.72089 9.90002 1.49998C9.90002 1.27906 9.72093 1.09998 9.50002 1.09998H8.90002V0.499976Z"
                fill="#000000"
        />
    </symbol>

    <symbol id="save" viewBox="0 0 512 512">
        <path id="Path_4"
              d="M480,224a31.991,31.991,0,0,0-32,32V448H64V256a32,32,0,0,0-64,0V480a31.991,31.991,0,0,0,32,32H480a31.991,31.991,0,0,0,32-32V256A31.991,31.991,0,0,0,480,224Z"
              fill-rule="evenodd"/>
        <path id="Path_5" d="M288,224V28.091C288,12.578,273.688,0,256,0s-32,12.578-32,28.091V224H128L256,352,384,224Z"
              fill-rule="evenodd"/>
    </symbol>

    <symbol id="open" viewBox="0 0 512 512">
        <path d="M480,224a31.991,31.991,0,0,0-32,32V448H64V256a32,32,0,0,0-64,0V480a31.991,31.991,0,0,0,32,32H480a31.991,31.991,0,0,0,32-32V256A31.991,31.991,0,0,0,480,224Z"
              fill-rule="evenodd"/>
        <path d="M224,320a32,32,0,0,0,64,0V128h96L256,0,128,128h96Z" fill-rule="evenodd"/>
    </symbol>

    <symbol id="move" viewBox="0 0 32 32">
        <style type="text/css">
            .st0{fill:none;stroke:#000000;stroke-width:2;stroke-linecap:round;stroke-linejoin:round;stroke-miterlimit:10;}
            .st1{fill:none;stroke:#000000;stroke-width:2;stroke-linecap:round;stroke-linejoin:round;}
            .st2{fill:none;stroke:#000000;stroke-width:2;stroke-linecap:round;stroke-linejoin:round;stroke-dasharray:6,6;}
            .st3{fill:none;stroke:#000000;stroke-width:2;stroke-linecap:round;stroke-linejoin:round;stroke-dasharray:4,4;}
            .st4{fill:none;stroke:#000000;stroke-width:2;stroke-linecap:round;}
            .st5{fill:none;stroke:#000000;stroke-width:2;stroke-linecap:round;stroke-dasharray:3.1081,3.1081;}

            .st6{fill:none;stroke:#000000;stroke-width:2;stroke-linecap:round;stroke-linejoin:round;stroke-miterlimit:10;stroke-dasharray:4,3;}
        </style>
        <polygon class="st0" points="14,4 1,12 14,20 27,12 "/>
        <polyline class="st0" points="4.3,18 1,20 14,28 18,25.6 "/>

        <g transform="translate(14, 13) scale(0.75)">
            <path d="M5 9L2 12M2 12L5 15M2 12H22M9 5L12 2M12 2L15 5M12 2V22M15 19L12 22M12 22L9 19M19 9L22 12M22 12L19 15"
                  stroke="#000000" stroke-width="2" stroke-linecap="round" stroke-linejoin="round"/>
        </g>
    </symbol>

    <symbol id="layer-add" viewBox="0 0 32 32">
        <style type="text/css">
            .st0{fill:none;stroke:#000000;stroke-width:2;stroke-linecap:round;stroke-linejoin:round;stroke-miterlimit:10;}
            .st1{fill:none;stroke:#000000;stroke-width:2;stroke-linecap:round;stroke-linejoin:round;}
            .st2{fill:none;stroke:#000000;stroke-width:2;stroke-linecap:round;stroke-linejoin:round;stroke-dasharray:6,6;}
            .st3{fill:none;stroke:#000000;stroke-width:2;stroke-linecap:round;stroke-linejoin:round;stroke-dasharray:4,4;}
            .st4{fill:none;stroke:#000000;stroke-width:2;stroke-linecap:round;}
            .st5{fill:none;stroke:#000000;stroke-width:2;stroke-linecap:round;stroke-dasharray:3.1081,3.1081;}

            .st6{fill:none;stroke:#000000;stroke-width:2;stroke-linecap:round;stroke-linejoin:round;stroke-miterlimit:10;stroke-dasharray:4,3;}
        </style>
        <circle class="st0" cx="24" cy="22" r="7"/>
        <line class="st0" x1="24" y1="19" x2="24" y2="25"/>
        <line class="st0" x1="21" y1="22" x2="27" y2="22"/>
        <polygon class="st0" points="14,4 1,12 14,20 27,12 "/>
        <polyline class="st0" points="4.3,18 1,20 14,28 18,25.6 "/>
    </symbol>

    <symbol id="delete-layer" viewBox="0 0 32 32">
        <style type="text/css">
            .st0{fill:none;stroke:#000000;stroke-width:2;stroke-linecap:round;stroke-linejoin:round;stroke-miterlimit:10;}
            .st1{fill:none;stroke:#000000;stroke-width:2;stroke-linecap:round;stroke-linejoin:round;}
            .st2{fill:none;stroke:#000000;stroke-width:2;stroke-linecap:round;stroke-linejoin:round;stroke-dasharray:6,6;}
            .st3{fill:none;stroke:#000000;stroke-width:2;stroke-linecap:round;stroke-linejoin:round;stroke-dasharray:4,4;}
            .st4{fill:none;stroke:#000000;stroke-width:2;stroke-linecap:round;}
            .st5{fill:none;stroke:#000000;stroke-width:2;stroke-linecap:round;stroke-dasharray:3.1081,3.1081;}

            .st6{fill:none;stroke:#000000;stroke-width:2;stroke-linecap:round;stroke-linejoin:round;stroke-miterlimit:10;stroke-dasharray:4,3;}
        </style>
        <circle class="st0" cx="24" cy="22" r="7"/>
        <line class="st0" x1="21" y1="22" x2="27" y2="22"/>
        <polygon class="st0" points="14,4 1,12 14,20 27,12 "/>
        <polyline class="st0" points="4.3,18 1,20 14,28 18,25.6 "/>
    </symbol>

    <symbol id="erase-layer" viewBox="0 0 32 32">
        <path class="st0"
              d="M28,12.5c0.8-0.8,0.8-2,0-2.8L22.4,4c-0.8-0.8-2-0.8-2.8,0L5,18.5c-0.8,0.8-0.8,2,0,2.8l3.8,3.8h6.6L28,12.5z"/>
        <line class="st0" x1="12.5" y1="11.1" x2="20.9" y2="19.5"/>
    </symbol>

    <symbol id="execute" viewBox="0 0 52 52">
        <path d="m28 3.5l-3 14.6c0 0.6 0.4 0.9 0.9 0.9h15.6c1.1 0 1.8 1.3 1.3 2.3l-17 27.9c-0.7 1.4-2.8 0.9-2.8-0.7l3-17.2c0-0.6-0.5-0.4-1.1-0.4h-16.4c-1.1 0-1.9-1.6-1.3-2.6l18-25.5c0.7-1.3 2.8-0.9 2.8 0.7z"/>
    </symbol>

    <symbol id="fader" viewBox="0 0 256 256">
        <path d="M140.001,123.99988v92a12,12,0,0,1-24,0v-92a12,12,0,1,1,24,0Zm59.999,68a12.00017,12.00017,0,0,0-11.999,12.00049l.001,12a12,12,0,1,0,24-.001l-.001-12A12.00008,12.00008,0,0,0,200,191.99988Zm24.001-40h-12l.001-112a12,12,0,1,0-24,0l-.001,112h-12a12,12,0,0,0,0,24h48a12,12,0,0,0,0-24Zm-168,8h0a12.00059,12.00059,0,0,0-12,12l-.00049,44a11.99987,11.99987,0,0,0,11.99951,12h.00049a12.0006,12.0006,0,0,0,12-12l.00049-44A12,12,0,0,0,56.001,159.99988Zm24-40h-12l-.00049-80a12,12,0,1,0-24,0l.00049,80h-12a12,12,0,0,0,0,24h48a12,12,0,1,0,0-24Zm72-48h-12v-32a12,12,0,1,0-24,0v32h-12a12,12,0,0,0,0,24h48a12,12,0,0,0,0-24Z"/>
    </symbol>

    <symbol id="play" viewBox="0 0 24 24">
        <path d="M6 6.741c0-1.544 1.674-2.505 3.008-1.728l9.015 5.26c1.323.771 1.323 2.683 0 3.455l-9.015 5.258C7.674 19.764 6 18.803 6 17.26V6.741zM17.015 12L8 6.741V17.26L17.015 12z"
              fill="#0D0D0D"/>
    </symbol>
    <symbol id="pause" viewBox="0 0 24 24">
        <path d="M7,3H9a1,1,0,0,1,1,1V20a1,1,0,0,1-1,1H7a1,1,0,0,1-1-1V4A1,1,0,0,1,7,3Zm8,18h2a1,1,0,0,0,1-1V4a1,1,0,0,0-1-1H15a1,1,0,0,0-1,1V20A1,1,0,0,0,15,21Z"
              style="fill: none; stroke: rgb(0, 0, 0); stroke-linecap: round; stroke-linejoin: round; stroke-width: 2;"></path>
    </symbol>
</svg>
