<svg xmlns="http://www.w3.org/2000/svg" width="32" height="32" viewBox="0 0 24 24">
    <!-- Fond pastel -->
    <rect width="24" height="24" rx="3" fill="#FCFCFC"/>

    <g transform="translate(0,3)">

        <!-- Première couche (dessus) -->
        <path
                d="M22 7.999a1 1 0 0 0-.516-.874l-9.022-5a1.003 1.003 0 0 0-.968 0l-8.978 4.96a1 1 0 0 0-.003 1.748l9.022 5.04a.995.995 0 0 0 .973.001l8.978-5A1 1 0 0 0 22 7.999zm-9.977 3.855L5.06 7.965l6.917-3.822 6.964 3.859-6.918 3.852z"
                fill="#BCEAB7"
        />

        <!-- Deuxième couche -->
        <path
                d="M20.515 11.126 12 15.856l-8.515-4.73-.971 1.748 9 5a1 1 0 0 0 .971 0l9-5-.97-1.748z"
                fill="#E0E0E0"
        />

        <!-- Troisième couche -->
        <path
                d="M20.515 15.126 12 19.856l-8.515-4.73-.971 1.748 9 5a1 1 0 0 0 .971 0l9-5-.97-1.748z"
                fill="#E0E0E0"
        />
    </g>

    <!-- Signe "+" dans le coin supérieur droit, remonté vers le haut -->
    <g stroke="#4F8C4C" stroke-width="2" stroke-linecap="round">
        <g transform="translate(1,0)">
            <line x1="17" y1="2" x2="17" y2="8"/>
            <line x1="14" y1="5" x2="20" y2="5"/>
        </g>
    </g>
</svg>
